Coordinates
version=1
nRows=12
nColumns=34
inDegrees=no

Units are S.I. units (second, meters, Newtons, ...)
If the header above contains a line with 'inDegrees', this indicates whether rotational values are in degrees (yes) or radians (no).

endheader
time	pelvis_tilt	pelvis_list	pelvis_rotation	pelvis_tx	pelvis_ty	pelvis_tz	hip_flexion_r	hip_adduction_r	hip_rotation_r	knee_angle_r	ankle_angle_r	subtalar_angle_r	mtp_angle_r	hip_flexion_l	hip_adduction_l	hip_rotation_l	knee_angle_l	ankle_angle_l	subtalar_angle_l	mtp_angle_l	lumbar_extension	lumbar_bending	lumbar_rotation	arm_flex_r	arm_add_r	arm_rot_r	elbow_flex_r	pro_sup_r	arm_flex_l	arm_add_l	arm_rot_l	elbow_flex_l	pro_sup_l
1.94	-0.0735365	-0.11634	0.0922028	-0.154024	1.2658	-0.652273	0.145043	-0.138566	-0.302357	0.211377	-0.496833	0.17678	-0.0988196	0.320921	-0.354884	-0.503883	0.299407	-0.603324	-0.0122029	-0.0974779	-0.331085	0.0668517	0.10432	0.271416	-0.448061	0.281989	1.71243	1.55273	0.0144013	-0.382517	0.156217	2.03098	1.91731
1.95	-0.0824807	-0.121213	0.0957965	-0.155578	1.26974	-0.652959	0.149469	-0.136861	-0.318536	0.189058	-0.490861	0.162914	-0.098832	0.33236	-0.359394	-0.5386	0.275887	-0.586464	-0.0299513	-0.0975062	-0.328438	0.0742186	0.109116	0.267326	-0.432354	0.289095	1.69503	1.56139	0.0016085	-0.374897	0.159336	2.03069	1.91749
1.96	-0.0896875	-0.124464	0.0994661	-0.15721	1.2728	-0.653633	0.153217	-0.137046	-0.333771	0.169671	-0.486176	0.149331	-0.0988444	0.343325	-0.362033	-0.565565	0.257146	-0.572863	-0.0452685	-0.0975345	-0.32809	0.0796857	0.113653	0.265511	-0.42091	0.299407	1.68192	1.56757	-0.00925879	-0.369897	0.159603	2.03356	1.91766
1.97	-0.0947849	-0.125983	0.103128	-0.158943	1.27503	-0.654309	0.156453	-0.139168	-0.345586	0.154899	-0.482602	0.137393	-0.0988569	0.353828	-0.362896	-0.581478	0.244834	-0.563211	-0.0572536	-0.0975627	-0.330616	0.0832543	0.11812	0.265941	-0.41335	0.312004	1.67282	1.57184	-0.0180808	-0.367058	0.156937	2.03884	1.91782
1.98	-0.0977672	-0.125851	0.106657	-0.160763	1.27645	-0.654991	0.159396	-0.143089	-0.352111	0.145441	-0.479888	0.128112	-0.0988693	0.363848	-0.362132	-0.584993	0.23943	-0.557511	-0.0654515	-0.0975909	-0.33594	0.0850556	0.12269	0.268328	-0.409118	0.325824	1.66718	1.57487	-0.0250018	-0.365925	0.151492	2.04559	1.91795
1.99	-0.0989603	-0.12428	0.109941	-0.162628	1.27705	-0.655682	0.162287	-0.148531	-0.352326	0.141142	-0.477758	0.12199	-0.0988817	0.373342	-0.35995	-0.576698	0.24042	-0.555138	-0.069924	-0.0976192	-0.343462	0.0853459	0.127486	0.272182	-0.407563	0.339786	1.66427	1.57716	-0.0303922	-0.366067	0.143604	2.05281	1.91805
2	-0.0989217	-0.121585	0.112915	-0.164473	1.27677	-0.656384	0.165362	-0.15512	-0.346191	0.141234	-0.475946	0.118975	-0.0988941	0.382281	-0.356617	-0.558727	0.246593	-0.555048	-0.0712156	-0.0976474	-0.352233	0.0844872	0.132543	0.276892	-0.408009	0.352918	1.66332	1.57897	-0.0347808	-0.367099	0.133746	2.05961	1.91812
2.01	-0.0983159	-0.118158	0.115582	-0.166236	1.27554	-0.657103	0.168827	-0.162446	-0.334631	0.14461	-0.474207	0.118508	-0.0989066	0.39067	-0.352439	-0.534119	0.256363	-0.556047	-0.070241	-0.0976755	-0.361155	0.0829121	0.137796	0.281825	-0.409829	0.364458	1.66359	1.58029	-0.0387732	-0.368697	0.122468	2.06532	1.91815
2.02	-0.0977858	-0.114406	0.11802	-0.167865	1.27331	-0.657846	0.172825	-0.170138	-0.319372	0.150085	-0.472324	0.119679	-0.098919	0.398537	-0.347717	-0.506108	0.268035	-0.557054	-0.0681303	-0.0977037	-0.369171	0.0810725	0.143084	0.286404	-0.412487	0.373895	1.66448	1.5811	-0.0429715	-0.370604	0.11035	2.0696	1.91808
2.03	-0.0978499	-0.110686	0.120371	-0.16932	1.27001	-0.658627	0.177407	-0.177914	-0.302644	0.156595	-0.470123	0.121412	-0.0989315	0.405902	-0.342687	-0.477527	0.280017	-0.55726	-0.0660126	-0.0977318	-0.375431	0.0793816	0.148169	0.290169	-0.415556	0.380976	1.66557	1.58135	-0.0479024	-0.372626	0.0979463	2.07238	1.9179
2.04	-0.0988469	-0.107255	0.122808	-0.170578	1.26561	-0.659464	0.182509	-0.185606	-0.286779	0.163298	-0.467501	0.122655	-0.0989439	0.412734	-0.337503	-0.450453	0.290957	-0.556163	-0.064773	-0.09776	-0.379396	0.0781593	0.152789	0.292807	-0.418721	0.385666	1.66663	1.58105	-0.0539647	-0.374623	0.0857298	2.07393	1.91754
2.05	-0.100916	-0.104255	0.125476	-0.171634	1.26011	-0.660369	0.187972	-0.193135	-0.273802	0.169608	-0.464451	0.122518	-0.0989564	0.418929	-0.332235	-0.426098	0.299819	-0.55351	-0.0648526	-0.0977881	-0.380877	0.077594	0.156722	0.294159	-0.42176	0.388094	1.6676	1.58029	-0.0613991	-0.376495	0.0740474	2.07467	1.91697
